<svg width="220" height="34" viewBox="0 0 220 34" fill="none" xmlns="http://www.w3.org/2000/svg">
<path d="M65.1324 24.04H67.6884C68.4564 24.04 68.9964 23.884 69.3084 23.572C69.6444 23.236 69.8124 22.684 69.8124 21.916V10.936C69.8124 10.168 69.6444 9.628 69.3084 9.316C68.9964 8.98 68.4564 8.812 67.6884 8.812H65.1324C64.3644 8.812 63.8244 8.98 63.5124 9.316C63.2004 9.628 63.0444 10.168 63.0444 10.936V21.916C63.0444 22.684 63.2004 23.236 63.5124 23.572C63.8244 23.884 64.3644 24.04 65.1324 24.04ZM71.7204 32.788H69.0924C68.4444 32.788 67.9764 32.536 67.6884 32.032L65.3484 28H64.3764C62.4804 28 61.0164 27.496 59.9844 26.488C58.9524 25.48 58.4364 24.028 58.4364 22.132V10.72C58.4364 8.824 58.9524 7.372 59.9844 6.364C61.0164 5.356 62.4804 4.852 64.3764 4.852H68.4084C70.3044 4.852 71.7684 5.356 72.8004 6.364C73.8324 7.372 74.3484 8.824 74.3484 10.72V22.132C74.3484 23.716 73.9644 25 73.1964 25.984C72.4524 26.968 71.3844 27.592 69.9924 27.856L72.2964 31.852C72.4164 32.14 72.4164 32.368 72.2964 32.536C72.1764 32.704 71.9844 32.788 71.7204 32.788ZM84.8605 28H83.6725C81.8245 28 80.4205 27.496 79.4605 26.488C78.5245 25.48 78.0565 24.028 78.0565 22.132V10.396C78.0565 9.892 78.3085 9.64 78.8125 9.64H81.8725C82.3765 9.64 82.6285 9.892 82.6285 10.396V21.916C82.6285 22.684 82.7845 23.236 83.0965 23.572C83.4325 23.884 83.9725 24.04 84.7165 24.04H86.0485C87.7045 24.04 88.5325 23.128 88.5325 21.304V10.396C88.5325 9.892 88.7845 9.64 89.2885 9.64H92.3125C92.8405 9.64 93.1045 9.892 93.1045 10.396V27.244C93.1045 27.748 92.8405 28 92.3125 28H89.2885C88.7845 28 88.5325 27.748 88.5325 27.244V26.056H88.3885C88.1245 26.704 87.6565 27.196 86.9845 27.532C86.3125 27.844 85.6045 28 84.8605 28ZM96.8523 6.544V3.412C96.8523 2.932 97.0923 2.692 97.5723 2.692H100.704C101.184 2.692 101.424 2.92 101.424 3.376V6.544C101.424 7.024 101.184 7.264 100.704 7.264H97.5723C97.0923 7.264 96.8523 7.024 96.8523 6.544ZM96.8523 27.244V10.396C96.8523 9.892 97.0923 9.64 97.5723 9.64H100.668C101.172 9.64 101.424 9.892 101.424 10.396V27.244C101.424 27.556 101.364 27.76 101.244 27.856C101.148 27.952 100.968 28 100.704 28H97.6083C97.1043 28 96.8523 27.748 96.8523 27.244ZM116.859 24.796V27.28C116.859 27.544 116.799 27.736 116.679 27.856C116.583 27.952 116.391 28 116.103 28H110.739C108.843 28 107.379 27.496 106.347 26.488C105.315 25.48 104.799 24.028 104.799 22.132V15.508C104.799 13.612 105.315 12.16 106.347 11.152C107.379 10.144 108.843 9.64 110.739 9.64H116.103C116.607 9.64 116.859 9.892 116.859 10.396V12.88C116.859 13.144 116.799 13.336 116.679 13.456C116.583 13.552 116.391 13.6 116.103 13.6H111.459C110.715 13.6 110.175 13.768 109.839 14.104C109.527 14.416 109.371 14.956 109.371 15.724V21.916C109.371 22.684 109.527 23.236 109.839 23.572C110.175 23.884 110.715 24.04 111.459 24.04H116.103C116.607 24.04 116.859 24.292 116.859 24.796ZM130.064 9.64H133.556C133.844 9.64 134.036 9.724 134.132 9.892C134.228 10.06 134.192 10.276 134.024 10.54L129.236 18.424V18.568L134.24 27.1C134.384 27.34 134.396 27.556 134.276 27.748C134.156 27.916 133.94 28 133.628 28H130.532C130.124 28 129.824 27.952 129.632 27.856C129.464 27.76 129.284 27.556 129.092 27.244L124.52 19.216C124.304 18.832 124.304 18.436 124.52 18.028L128.84 10.36C129.104 9.88 129.512 9.64 130.064 9.64ZM123.368 28H120.308C119.804 28 119.552 27.748 119.552 27.244V3.448C119.552 2.944 119.804 2.692 120.308 2.692H123.368C123.872 2.692 124.124 2.944 124.124 3.448V27.244C124.124 27.748 123.872 28 123.368 28ZM140.3 28H137.24C136.736 28 136.484 27.748 136.484 27.244V5.608C136.484 5.104 136.736 4.852 137.24 4.852H145.808C147.68 4.852 149.144 5.368 150.2 6.4C151.256 7.432 151.784 8.884 151.784 10.756V13.564C151.784 16.276 150.716 18.076 148.58 18.964V19.108L152.432 27.136C152.648 27.712 152.444 28 151.82 28H148.904C148.472 28 148.16 27.952 147.968 27.856C147.776 27.76 147.62 27.556 147.5 27.244L143.9 19.468H141.488C141.2 19.468 141.056 19.6 141.056 19.864V27.244C141.056 27.748 140.804 28 140.3 28ZM141.452 15.796H144.98C145.748 15.796 146.312 15.64 146.672 15.328C147.032 14.992 147.212 14.464 147.212 13.744V10.936C147.212 10.192 147.032 9.652 146.672 9.316C146.312 8.98 145.748 8.812 144.98 8.812H141.452C141.188 8.812 141.056 8.944 141.056 9.208V15.4C141.056 15.664 141.188 15.796 141.452 15.796Z" fill="white"/>
<path d="M65.1324 24.04H67.6884C68.4564 24.04 68.9964 23.884 69.3084 23.572C69.6444 23.236 69.8124 22.684 69.8124 21.916V10.936C69.8124 10.168 69.6444 9.628 69.3084 9.316C68.9964 8.98 68.4564 8.812 67.6884 8.812H65.1324C64.3644 8.812 63.8244 8.98 63.5124 9.316C63.2004 9.628 63.0444 10.168 63.0444 10.936V21.916C63.0444 22.684 63.2004 23.236 63.5124 23.572C63.8244 23.884 64.3644 24.04 65.1324 24.04ZM71.7204 32.788H69.0924C68.4444 32.788 67.9764 32.536 67.6884 32.032L65.3484 28H64.3764C62.4804 28 61.0164 27.496 59.9844 26.488C58.9524 25.48 58.4364 24.028 58.4364 22.132V10.72C58.4364 8.824 58.9524 7.372 59.9844 6.364C61.0164 5.356 62.4804 4.852 64.3764 4.852H68.4084C70.3044 4.852 71.7684 5.356 72.8004 6.364C73.8324 7.372 74.3484 8.824 74.3484 10.72V22.132C74.3484 23.716 73.9644 25 73.1964 25.984C72.4524 26.968 71.3844 27.592 69.9924 27.856L72.2964 31.852C72.4164 32.14 72.4164 32.368 72.2964 32.536C72.1764 32.704 71.9844 32.788 71.7204 32.788ZM84.8605 28H83.6725C81.8245 28 80.4205 27.496 79.4605 26.488C78.5245 25.48 78.0565 24.028 78.0565 22.132V10.396C78.0565 9.892 78.3085 9.64 78.8125 9.64H81.8725C82.3765 9.64 82.6285 9.892 82.6285 10.396V21.916C82.6285 22.684 82.7845 23.236 83.0965 23.572C83.4325 23.884 83.9725 24.04 84.7165 24.04H86.0485C87.7045 24.04 88.5325 23.128 88.5325 21.304V10.396C88.5325 9.892 88.7845 9.64 89.2885 9.64H92.3125C92.8405 9.64 93.1045 9.892 93.1045 10.396V27.244C93.1045 27.748 92.8405 28 92.3125 28H89.2885C88.7845 28 88.5325 27.748 88.5325 27.244V26.056H88.3885C88.1245 26.704 87.6565 27.196 86.9845 27.532C86.3125 27.844 85.6045 28 84.8605 28ZM96.8523 6.544V3.412C96.8523 2.932 97.0923 2.692 97.5723 2.692H100.704C101.184 2.692 101.424 2.92 101.424 3.376V6.544C101.424 7.024 101.184 7.264 100.704 7.264H97.5723C97.0923 7.264 96.8523 7.024 96.8523 6.544ZM96.8523 27.244V10.396C96.8523 9.892 97.0923 9.64 97.5723 9.64H100.668C101.172 9.64 101.424 9.892 101.424 10.396V27.244C101.424 27.556 101.364 27.76 101.244 27.856C101.148 27.952 100.968 28 100.704 28H97.6083C97.1043 28 96.8523 27.748 96.8523 27.244ZM116.859 24.796V27.28C116.859 27.544 116.799 27.736 116.679 27.856C116.583 27.952 116.391 28 116.103 28H110.739C108.843 28 107.379 27.496 106.347 26.488C105.315 25.48 104.799 24.028 104.799 22.132V15.508C104.799 13.612 105.315 12.16 106.347 11.152C107.379 10.144 108.843 9.64 110.739 9.64H116.103C116.607 9.64 116.859 9.892 116.859 10.396V12.88C116.859 13.144 116.799 13.336 116.679 13.456C116.583 13.552 116.391 13.6 116.103 13.6H111.459C110.715 13.6 110.175 13.768 109.839 14.104C109.527 14.416 109.371 14.956 109.371 15.724V21.916C109.371 22.684 109.527 23.236 109.839 23.572C110.175 23.884 110.715 24.04 111.459 24.04H116.103C116.607 24.04 116.859 24.292 116.859 24.796ZM130.064 9.64H133.556C133.844 9.64 134.036 9.724 134.132 9.892C134.228 10.06 134.192 10.276 134.024 10.54L129.236 18.424V18.568L134.24 27.1C134.384 27.34 134.396 27.556 134.276 27.748C134.156 27.916 133.94 28 133.628 28H130.532C130.124 28 129.824 27.952 129.632 27.856C129.464 27.76 129.284 27.556 129.092 27.244L124.52 19.216C124.304 18.832 124.304 18.436 124.52 18.028L128.84 10.36C129.104 9.88 129.512 9.64 130.064 9.64ZM123.368 28H120.308C119.804 28 119.552 27.748 119.552 27.244V3.448C119.552 2.944 119.804 2.692 120.308 2.692H123.368C123.872 2.692 124.124 2.944 124.124 3.448V27.244C124.124 27.748 123.872 28 123.368 28ZM140.3 28H137.24C136.736 28 136.484 27.748 136.484 27.244V5.608C136.484 5.104 136.736 4.852 137.24 4.852H145.808C147.68 4.852 149.144 5.368 150.2 6.4C151.256 7.432 151.784 8.884 151.784 10.756V13.564C151.784 16.276 150.716 18.076 148.58 18.964V19.108L152.432 27.136C152.648 27.712 152.444 28 151.82 28H148.904C148.472 28 148.16 27.952 147.968 27.856C147.776 27.76 147.62 27.556 147.5 27.244L143.9 19.468H141.488C141.2 19.468 141.056 19.6 141.056 19.864V27.244C141.056 27.748 140.804 28 140.3 28ZM141.452 15.796H144.98C145.748 15.796 146.312 15.64 146.672 15.328C147.032 14.992 147.212 14.464 147.212 13.744V10.936C147.212 10.192 147.032 9.652 146.672 9.316C146.312 8.98 145.748 8.812 144.98 8.812H141.452C141.188 8.812 141.056 8.944 141.056 9.208V15.4C141.056 15.664 141.188 15.796 141.452 15.796Z" fill="white"/>
<path d="M33.4583 9.20825V13.4583H29.2083V9.20825H33.4583ZM35.5833 7.08325H27.0833V15.5833H35.5833V7.08325ZM33.4583 20.5416V24.7916H29.2083V20.5416H33.4583ZM35.5833 18.4166H27.0833V26.9166H35.5833V18.4166ZM44.7917 9.20825V13.4583H40.5417V9.20825H44.7917ZM46.9167 7.08325H38.4167V15.5833H46.9167V7.08325ZM38.4167 18.4166H40.5417V20.5416H38.4167V18.4166ZM40.5417 20.5416H42.6667V22.6666H40.5417V20.5416ZM42.6667 18.4166H44.7917V20.5416H42.6667V18.4166ZM38.4167 22.6666H40.5417V24.7916H38.4167V22.6666ZM40.5417 24.7916H42.6667V26.9166H40.5417V24.7916ZM42.6667 22.6666H44.7917V24.7916H42.6667V22.6666ZM44.7917 20.5416H46.9167V22.6666H44.7917V20.5416ZM44.7917 24.7916H46.9167V26.9166H44.7917V24.7916ZM51.1667 9.91659H48.3333V5.66659H44.0833V2.83325H51.1667V9.91659ZM51.1667 31.1666V24.0833H48.3333V28.3333H44.0833V31.1666H51.1667ZM22.8333 31.1666H29.9167V28.3333H25.6667V24.0833H22.8333V31.1666ZM22.8333 2.83325V9.91659H25.6667V5.66659H29.9167V2.83325H22.8333Z" fill="#F8F8F8"/>
</svg>
