<svg width="233" height="62" viewBox="0 0 233 62" fill="none" xmlns="http://www.w3.org/2000/svg">
<path d="M18.3621 50.1922C29.8835 50.1922 37.0886 44.4149 37.0886 35.2508C37.0886 28.1454 32.8386 24.0946 22.7449 22.0028L17.5984 20.9403C11.6218 19.6786 9.2312 17.5868 9.2312 14.3329C9.2312 10.3153 13.0164 7.79184 18.3289 7.79184C22.8113 7.79184 26.2312 9.5184 27.8582 13.5692C28.7546 15.4286 29.9832 16.2918 31.9753 16.2918C34.2 16.2918 35.6941 14.8641 35.6941 12.7723C35.6941 11.9754 35.5945 11.3446 35.3953 10.8133C33.4363 4.47153 26.8621 0.686371 18.3953 0.686371C8.00269 0.686371 0.598389 6.39731 0.598389 14.8309C0.598389 21.8368 5.08081 26.3524 14.6765 28.3114L19.823 29.3739C26.0652 30.6688 28.4558 32.7938 28.4558 36.2469C28.4558 40.2313 24.405 43.0868 18.6277 43.0868C13.5144 43.0868 9.39722 41.2274 7.90308 37.077C6.97339 35.1512 5.77808 34.3875 3.8855 34.3875C1.62769 34.3875 0.100342 35.9149 0.100342 38.3055C0.100342 39.1024 0.266357 39.9657 0.565186 40.7625C2.42456 46.2079 8.79956 50.1922 18.3621 50.1922ZM48.8571 61.9129C51.281 61.9129 53.0075 60.3524 53.0075 57.5633V43.5516H53.1735C55.0993 47.5028 59.0837 49.9598 64.197 49.9598C73.029 49.9598 78.6735 43.0204 78.6735 31.7977C78.6735 20.5418 72.9958 13.6024 64.0642 13.6024C58.9509 13.6024 54.9665 16.1922 52.9743 20.2762H52.8083V17.7528C52.8083 15.0301 51.115 13.5028 48.7575 13.5028C46.4001 13.5028 44.74 15.0301 44.74 17.7528V57.5633C44.74 60.3524 46.4333 61.9129 48.8571 61.9129ZM61.5407 43.1864C56.3942 43.1864 52.9743 38.7039 52.9411 31.7977C52.9743 24.9579 56.3942 20.409 61.5407 20.409C66.8864 20.409 70.2067 24.8582 70.2067 31.7977C70.2067 38.7704 66.8864 43.1864 61.5407 43.1864ZM101.598 50.0926C111.924 50.0926 118.632 43.2196 118.632 31.7977C118.632 20.409 111.858 13.4696 101.598 13.4696C91.3385 13.4696 84.5651 20.4422 84.5651 31.7977C84.5651 43.2196 91.2721 50.0926 101.598 50.0926ZM101.598 43.5516C96.3522 43.5516 92.9655 39.3016 92.9655 31.7977C92.9655 24.327 96.3854 20.0438 101.598 20.0438C106.844 20.0438 110.231 24.327 110.231 31.7977C110.231 39.3016 106.844 43.5516 101.598 43.5516ZM130.3 9.25278C132.89 9.25278 134.916 7.26059 134.916 4.77036C134.916 2.24692 132.89 0.287933 130.3 0.287933C127.744 0.287933 125.718 2.24692 125.718 4.77036C125.718 7.26059 127.744 9.25278 130.3 9.25278ZM130.3 50.0594C132.824 50.0594 134.451 48.3993 134.451 45.7098V17.8856C134.451 15.1961 132.824 13.5028 130.3 13.5028C127.777 13.5028 126.183 15.1961 126.183 17.8524V45.7098C126.183 48.3993 127.777 50.0594 130.3 50.0594ZM147.813 50.0594C150.237 50.0594 151.93 48.4989 151.93 45.7098V5.16879C151.93 2.37973 150.237 0.819183 147.813 0.819183C145.389 0.819183 143.663 2.37973 143.663 5.16879V45.7098C143.663 48.4989 145.389 50.0594 147.813 50.0594ZM165.326 9.25278C167.916 9.25278 169.941 7.26059 169.941 4.77036C169.941 2.24692 167.916 0.287933 165.326 0.287933C162.769 0.287933 160.744 2.24692 160.744 4.77036C160.744 7.26059 162.769 9.25278 165.326 9.25278ZM165.326 50.0594C167.849 50.0594 169.476 48.3993 169.476 45.7098V17.8856C169.476 15.1961 167.849 13.5028 165.326 13.5028C162.802 13.5028 161.209 15.1961 161.209 17.8524V45.7098C161.209 48.3993 162.802 50.0594 165.326 50.0594ZM192.036 50.0926C201.001 50.0926 207.043 45.6766 207.043 38.9364C207.043 33.7235 204.088 31.034 196.651 29.3407L191.04 28.1122C187.387 27.2821 185.86 25.8875 185.86 23.8289C185.86 21.3055 188.35 19.5457 191.969 19.5457C195.456 19.5457 197.481 21.0731 199.108 23.4969C199.872 24.5926 201.067 25.0243 202.262 25.0243C204.354 25.0243 205.45 23.7957 205.45 22.0692C205.45 21.6707 205.383 21.2723 205.284 20.8407C204.188 16.7899 198.942 13.4696 192.168 13.4696C183.469 13.4696 177.825 17.7528 177.825 24.2938C177.825 29.4071 181.211 32.7938 188.084 34.3543L193.795 35.6493C197.415 36.4793 198.743 37.6414 198.743 39.7664C198.743 42.4227 196.186 44.0497 192.334 44.0497C188.383 44.0497 186.258 42.8543 184.399 40.1649C183.336 38.7704 182.174 38.1395 180.813 38.1395C178.821 38.1395 177.36 39.4012 177.36 41.3934C177.36 41.8914 177.459 42.4227 177.692 43.0204C179.385 47.2372 184.598 50.0926 192.036 50.0926ZM216.587 40.6961C216.587 46.7059 219.708 49.7606 225.851 49.7606H226.183C229.968 49.7606 232.093 48.4657 232.093 46.0418C232.093 44.1161 230.964 43.1864 228.773 42.9872L228.175 42.9207C225.785 42.7215 224.855 41.5594 224.855 38.9032V20.575H228.673C230.732 20.575 231.994 19.3465 231.994 17.3543C231.994 15.3954 230.732 14.2 228.673 14.2H224.855V9.5184C224.855 6.86215 223.261 5.202 220.738 5.202C218.181 5.202 216.587 6.86215 216.587 9.5184V14.2H214.363C212.304 14.2 211.042 15.3954 211.042 17.3543C211.042 19.3465 212.304 20.575 214.363 20.575H216.587V40.6961Z" fill="#5E5CE6"/>
</svg>
